<svg width="24" height="24" viewBox="0 0 24 24" fill="none" xmlns="http://www.w3.org/2000/svg">
    <path d="M12 2C6.4775 2 2 6.47714 2 12C2 17.5229 6.4775 22 12 22C17.5225 22 22 17.5225 22 12C22 6.4775 17.5225 2 12 2ZM16.1279 16.1279C15.6954 16.5603 14.9939 16.5603 14.561 16.1279L12.0001 13.5669L9.43911 16.1279C9.00664 16.5603 8.30518 16.5603 7.87229 16.1279C7.43982 15.6954 7.43982 14.9939 7.87229 14.561L10.4333 12.0001L7.87229 9.43911C7.43982 9.00664 7.43982 8.30518 7.87229 7.87229C8.30475 7.43982 9.00622 7.43982 9.43911 7.87229L12.0001 10.4333L14.561 7.87229C14.9935 7.43982 15.695 7.43982 16.1279 7.87229C16.5603 8.30475 16.5603 9.00621 16.1279 9.43911L13.5669 12.0001L16.1279 14.561C16.5603 14.9935 16.5603 15.695 16.1279 16.1279Z" fill="#6B6661" />
</svg>
