<svg width="24" height="24" viewBox="0 0 24 24" fill="none" xmlns="http://www.w3.org/2000/svg">
    <path fill-rule="evenodd" clip-rule="evenodd" d="M12 22C17.5228 22 22 17.5228 22 12C22 6.47715 17.5228 2 12 2C6.47715 2 2 6.47715 2 12C2 17.5228 6.47715 22 12 22ZM17.3022 9.0971C17.6319 8.65408 17.5401 8.0276 17.0971 7.69783C16.6541 7.36806 16.0276 7.45988 15.6978 7.9029L11.1731 13.9816L8.20181 11.0543C7.80838 10.6667 7.17524 10.6714 6.78764 11.0649C6.40004 11.4583 6.40476 12.0914 6.79819 12.479L10.1786 15.8093C10.8272 16.4483 11.8909 16.3668 12.4345 15.6364L17.3022 9.0971Z" fill="#359C2C" />
</svg>
