<svg width="24" height="24" viewBox="0 0 24 24" fill="none" xmlns="http://www.w3.org/2000/svg">
    <path d="M7.37392 12C7.37392 11.0747 7.42267 10.1739 7.4957 9.32166H2.38265C2.1391 10.1739 2.01733 11.0747 2.01733 12C2.01733 12.9253 2.13911 13.8261 2.38248 14.6784H7.49553C7.4225 13.8261 7.37392 12.9253 7.37392 12Z" fill="#2C3034" />
    <path d="M9.85739 2.26086C6.59482 2.99134 3.91652 5.30434 2.69913 8.34782H7.61739C8.00699 5.66947 8.81047 3.5026 9.85739 2.26086Z" fill="#2C3034" />
    <path d="M14.1426 21.7391C17.4052 21.0087 20.0835 18.6957 21.3009 15.6522H16.3826C15.993 18.3305 15.1895 20.4731 14.1426 21.7391Z" fill="#2C3034" />
    <path d="M2.69913 15.6522C3.91652 18.6957 6.57039 21.0331 9.85739 21.7391C8.81052 20.473 8.007 18.3305 7.61739 15.6522H2.69913Z" fill="#2C3034" />
    <path d="M21.6174 9.32175H16.5044C16.6017 10.174 16.6261 11.0748 16.6261 12.0001C16.6261 12.9254 16.5774 13.8262 16.5044 14.6784H21.6174C21.8609 13.8262 21.9825 12.9254 21.9825 12.0001C21.9827 11.0748 21.8609 10.174 21.6174 9.32175Z" fill="#2C3034" />
    <path d="M21.3009 8.34782C20.0835 5.30434 17.4296 2.96695 14.1426 2.26086C15.1895 3.52699 15.993 5.69395 16.3826 8.34782H21.3009Z" fill="#2C3034" />
    <path d="M15.36 8.34784C14.8486 4.91475 13.607 2.0174 12 2.0174C10.393 2.0174 9.15127 4.91483 8.63992 8.34784H15.36Z" fill="#2C3034" />
    <path d="M8.34784 12C8.34784 12.8765 8.39658 13.8018 8.4939 14.6784H15.4817C15.579 13.8018 15.6278 12.8766 15.6278 12C15.6278 11.1234 15.579 10.1982 15.4817 9.32166H8.4939C8.39658 10.1982 8.34784 11.1234 8.34784 12Z" fill="#2C3034" />
    <path d="M8.64001 15.6522C9.17567 19.0853 10.4174 21.9826 12.0001 21.9826C13.5826 21.9826 14.8488 19.0852 15.3601 15.6522H8.64001Z" fill="#2C3034" />
</svg>
