<svg width="24" height="24" viewBox="0 0 24 24" fill="#F3EBEA" xmlns="http://www.w3.org/2000/svg">
    <path d="M19.4288 4.57125C17.5125 2.68125 14.8875 1.5 12 1.5C9.11245 1.5 6.4875 2.6812 4.57125 4.57125C2.68125 6.48745 1.5 9.11245 1.5 12C1.5 17.8013 6.19875 22.5 12 22.5C14.8876 22.5 17.5125 21.3188 19.4288 19.4288C21.3188 17.5125 22.5 14.8875 22.5 12C22.5 9.11245 21.3188 6.4875 19.4288 4.57125ZM13.05 17.355C13.05 17.9325 12.5776 18.4049 12.0001 18.4049C11.4226 18.4049 10.9502 17.9325 10.9502 17.355V10.215C10.9502 9.6375 11.4226 9.16509 12.0001 9.16509C12.5776 9.16509 13.05 9.6375 13.05 10.215V17.355ZM13.05 6.855C13.05 7.4325 12.5776 7.90491 12.0001 7.90491C11.4226 7.90491 10.9502 7.4325 10.9502 6.855V6.64498C10.9502 6.06748 11.4226 5.59507 12.0001 5.59507C12.5776 5.59507 13.05 6.06748 13.05 6.64498V6.855Z" />
</svg>
